<?xml version="1.0" encoding="UTF-8" standalone="no"?>
<svg xmlns="http://www.w3.org/2000/svg" height="1333" width="1333" version="1">
  <defs>
    <clipPath id="jw-logo">
      <path d="M0 1000h1000V0H0z"/>
    </clipPath>
  </defs>
  <g clip-path="url(#a)" transform="matrix(1.33333 0 0 -1.33333 0 1333)">
    <path d="M504 598l-6-16-4-5c-1-4-4-7 0-13 6 11 8 23 10 34m160 129c5-5 11-5 17-6 5-1 5-3 2-7 2-2 3-5 0-8-2-2-2-6-3-9l13-9h-6l3-8 6-7-1-1 18-3c-1 8-8 10-13 13l5 4c5-5 12-6 15-12l2-6 6-4c-6 0-11 6-18 2l10-6 10-6h-65l1-10c0-2 2-3 3-4l20-6c10-3 13-7 10-17l-13-43-56-165h-1l-76 248-25-9-2-4-23-63-11-33-2 4c-3-3-7-5-9-10l-23-78-12-41-3-16-10 34-6 24-7 19-11 47-8 15-1 3c1 9-3 17-6 25l-1 5c-1 5 0 10-7 14-2 1-1 7-2 10l-2 8c-6 10-2 20 9 24l24 6-2 13h-8l1 5-26-1-26-1-7 3-1-2-17 3c-4 0-6 1-8 5l-11 11-1-1 2-4-1-1-10 16 12-1-6 4v1h3l-2 13v5l11-9v1l-4 7 1 1 5-2v4c5-7 11-4 17-4l17-2c3 0 7-2 7 4 0 2 3 2 5 1l16-2 1 3-16 7 18 2 3-2 4-1 10 3 4 2-1 2h-8l3 5-8-1-3 5-1-3-13 2-14-1v2l5 2 22-1c8-1 15-3 23 1-2 3-5 3-10 2l-13 1c4 5 9 2 14 3l-2 3a35599 35599 0 0 1 1 2v2h23l3 4-1 3-4 8 1 2h4l5-4c-3-3-2-5 3-7 2 8 9 6 15 6l-8-4h11v-1l-6-1-1-5 13 1c5 2 1 8 3 12 10 1 19-2 26-9l-3-1v-1h14l11-5h6v2l-4 1 6 4 3-4-2-2c3 1 6-4 8 2h13l2-3c3-3 8-2 10 1l-8 7c1 6 7 3 10 5-1-7 12-11 20-9l7 2-9-6-2-5 4-2-4-3v-1l8 2v4l7-3 3-3c4 1 8 0 12 3l8 1 4-1 4-4-10-1v-1h9c6 3 10 1 16-2l-13-9v-1h8l8 2a255 255 0 0 0 17 1c2-4 2-3 4-1l9 5z" fill="#7c7e81"/>
    <path d="M481 315l-2-1 6-8 1 1-5 8m14-1l-8 5 3-9 5 4m-5-38l-5 6-1-1 7-10 5 9-2 1-4-5m96-6l2 1-6 10 4-3a28421 28421 0 0 1 1 7l1-4v8l-13-7 4-6c3 3 3 0 4-2l3-4m43 19c0-7 0-7-7-8-4-1-8-2-7-7l-1-4-5 1-1-9c-1-2-5-2-8-3l2-5c-7 1-10-2-11-9l-4 4-3 3-1-1 4-6-1-1-7 9h-2l1-5 4-4v-5l-3-1-3 5c2 3 0 4-2 7l-8 13c5 0 6 3 4 7l9-1-6 4 2 9-5-4-3-1c-2 0-4 0-5-3l-3-6c-5-1-6-1-7 5l-1-4 2-4-1-4-4 3v5l-6-1-2 2 4 1h-1l-6 10c0 2 4 5 6 7-4 3-4 5-2 8-5 2-9 0-9-4l-4 1 1-7h-1l-3 5 2 1h-5l1-5-6 2 4-8-1-1-6 4-1-1 3-4 1-3-2 1-6 1-1-3h-4l-3-7-3 3-1-1c-1-4-1-8-7-8l-4-4-8-7 3-5c-7 2-10 6-11 11l4-1-2 5 11-1c1 7-4 12-6 18l9-6-5-1 7-8 3 7c-11 8-16 22-25 33l1 1 9-3-6 9c-2 3-4 2-6-1l-5-4-1-4h-1l-4 9-1-1 3-7-4-6-5 6-3-10c-5 5-4 9 1 14l5-3c-1 12 4 21 6 31l5 12 1 8 5 8 6 21-3-4h-1l5 17-5-3 48 138 6-20 19-60c1-3 4-6 0-10l1-3c4-14 10-28 13-43l7-36 1-10-3 7h-1v-4l7-16 2-5-1-11-2-3c9-1 3-13 11-16l-3-3c4-1 5-1 5 3 0 2 0 2 2 2l5 1 3 4 3-4 4-2c7 4 8 4 9-4h-3l-1-1 8-7 8-5c5 0 1 3 2 5 2 1 4 3 6 0l5-1zM685 388c-1 3-4 3-7 3h-7l2-6-4-2-7-1 1-9h-4c-1-3 1-9-6-7l2-4-1-1-7 5v4c11 18 16 39 24 58l8 21 12 25 9 22v9c7 9 8 21 13 31l9 18 8 25 3 5-2-9h1l4 11c-4 1-4 3 0 12l1-1 1-1c4 6-6 3-5 7l-5-8h-1l5 13 4 2 7 14c1 4 3 6 7 7l19 6 4-2c5-3 7-10 14-12 2 0 3-4 3-8-4 2-9 0-12 6-1 2-6 3-9 4l-1-2 18-16 2 7c4-2 5-4 5-8-2-8-2-8 6-14l-8-5c6-13 5-18-5-30 5 2 6 0 5-4l-1-11-11 1 9-6-4-3 2-5-7-7v-8c-1-3-3-7-8-5l-7-1 6-5c-2-5-4-6-9-5l-4 2-2-1 1-2 8-6-7-5-8 3-1-1 9-6-6-1v-6l-2-5-1-4c-3-1-6-2-7-4-1-3-2-6 1-9 3-2 3-4 1-7l-2-4c-2 0-6-1-3 4v6l-3 1c-1-7-7-8-10-11v-13l-6-1 2-3-9 1c-1-2-6-5-3-10l-2-2-6-4-4 3-5-4 2-15-2-1-6 4v-1l4-4-5-4zM302 521h-3c2-3 1-8 7-8l-4 8m-10-88l-3 10c-4-2-4-3 3-10m-7-30v4c5-1 2 2 1 3l-5 8-3-1 7-14m30-9l-1 4-1 4-4-3c-3-3-1-6 1-9l5 4m-7 53c-3 13-3 13-7 14-2-5-1-9 7-14m-9-31h4l-1 8-3 7-1-1 1-7-4 1 4-8m-21 20c-1-1-2-2-1-3l7-13 1 1c-1 7-1 15-9 19l2-4m33 92l-5-1 1-6 2-3 2-1v9l4-8 1 1-1 5 4-1-5 7-3-2m-59-91l2 14h2l3-8h1l-2 17 3-2-1 4 2 6 2-1c5 6 6 15 14 19l-1 3v1c8 2 9 9 13 14l-4 6 4 1 4-4 4 3-7 7 1 1a9315 9315 0 0 1 4-2l-8 9c-5 3-6 5-3 9l2-2 1 6 6 3c2 0 4 0 4-4l4-5 3 3-8 10 3-1v3l5-5v8l11-4-1 3c3-1 6-4 5 3 5-7 38-112 37-116l-3 2-1-4-4 4 1-8-5 6-1-1 4-8-1-1-3 5c0-5 6-15 11-17l-4-5-2 2-4 9c-3 5-3 6-6 2-2-3-2-6-2-9l4-2 2-2c7-1 7-6 8-10l-9-3 5-11c-3-1-8 3-9 7l-4 10c-1 2-2 4-5 2h-7l4-10c4-2 6-7 9-11l-1-1-5 6c-1-3-2-6 3-6l3-4-2-3 13-22-1-1-6 10c-2 3-3 7-8 3l-2 1c1-9 3-11 10-9l2-6-7 2 4-10 2 4 3-4-5-4c-4 2-4 2-6-5l-4 4-3 4c-1 7 0 9 7 6l-14 18c2-7-5-7-8-10l-3 5-3-4c-2 1-2 5-6 3l-2 3 1 5c3 0 4 2 2 4l-8 11v-4l-9 13 4-3-2 7 4-3 1 1-8 8-9 12 6-2-6 9v1l4-4-3 7 4-2-5 10-1-1v-3l-9 13 2-8-6 7 1-4-6-2-1 2" fill="#7c7e81"/>
    <path d="M365 323c4 6-1 7-3 9l1-8 2-1m50-95v2l-4 2-3-2 3-4 2-2 5-3 1 1-7 6 1 1 2-1m-30 47c0 4-4 7-9 7l9-7-4-8-1 6c-1-3-5-8 2-9l1-1 6-5h1l-4 7 8-1-9 11m-47-12l-4 3-8 2v2l5 3c2 3-1 5-5 4l-4-2v-8l5-4-4-6c-4 2-6 8-13 9 3-5 10-5 6-12l-4 6h-1l2-5-8 1 1-3-9 11-6-14-2 6-6-7c-2-2-4-5-7-5-5-1-5-2-2-6l-1-3-2 4c-1 1 0 5-3 1l-1 4c4 3 1 5 0 7l-3 5c4 0 6 0 5-4l4-4h1l-4 7 1 1 3-2h1l-6 5-1 1v1c9 2 11 10 17 15l2-2c-1 5 3 7 6 9l16 15 6 5v3l-7 9c-2 3-4 5-1 10l3-5 2-3 2-2 3-8h2l4 7 2-2c-2 7 3 9 7 12l3-4 2 4 3-1-2 9 8-1a65844 65844 0 0 0 3-2l-2 5h3l-2 3 4-2 5 7 3-1v4l2-1 8 3 1-6h1v5l5-6-7-4c3-6 5-3 8 1l4-13c1-2-1-4 2-6l-1-4h-1l4-10 1 4 2-1-3-7 3-2 1 6c2-4 4-7 9-4l3-1c2-6 7-7 13-6h5l-2-6-3 4-5-14-4 5-1-3c3-5 0-12 5-17l-3-5-1 1 2-5-5 5-1-9-4 1-3-5 3-12c5 0 8 1 9 8l5-7h1l-2 7h1l3-6 3-2v3l-3 5 1 4h3l2-3c-3-4 0-7 1-10l4-9-5-6-5 1 3-4-7-3-7 15c0-6 3-11 5-17l-3 3c-1-1 3-6-2-5l1-3-9-5-4 3v-4c-5 6-13 7-13 15l3 5c1 3 2 5 6 3 1 9 1 9 10 8l-5 6-5 3 2 1-1 4c-3 1-6 2-9-2 0-2-1-3-3-5l-2 4c4 6-2 9-3 14l-4 8h1l9-14c3 3 4 6 2 9l-10 14-5 4c0-6-3-7-8-8-6-1-4-6-5-9-2 0-4 2-6 1-2 0-4-3-6-4l-3 8 3-2 8 9c2-1 7 3 7 6l9 2-12 14 2-9h-1l-6 8-7-4 2-6-8 8c4-3 1-13 10-12 1-6 0-7-5-6l-2-8" fill="#7c7e81"/>
    <path d="M454 252c-6-1-11-4-14-9v-7h-1c0 4-4 7-8 5v-3l4-7 2-5-1-1-8 11 1-8-6 10 6 7c1 4 4 5 7 3 3 11 5 12 14 8l-3 5c7 0 6 6 10 10l2-12c-4 0-5-3-5-7" fill="#7c7e81"/>
    <path d="M454 252l6-2h6a5507 5507 0 0 1 0 6l9-12-1-1-7 5-3-12-6-3-5 8c-1 1 0 3 1 5v6M672 343l-35-7-1 2c2 1 5 3 8 3 4 0 9 3 10 8l7-1 3-5 1 4 7-2v-2M602 254l3 1 6 2 12-3c-6-11-7-11-15-8l1 6-7 2zM424 284l3 6 2 3 4-3 4-7-6-3 3-8-2-1-8 13M597 761l-15 3c-1 1-3 0-5-1l-8-2-1 2 8 2-6 1 3 4 3-2 4 2c1-3 3-4 7-3l3-2c3-2 9 6 9-4h-2M612 743c-5-4-12 1-18-1l16 13c1-4 0-10 6-10l-4-2M511 261l13-16c-3-5-7-5-9 1-3 4-4 9-6 14l2 1M660 331l3-5v5l5 1 2-6 2 6 7-1c2 0 4-1 4-3l-3-4-2 3-11-3v4l-6-4-3 7h2M454 277l3 3 2-6c2 4 2 4-1 7l-5 8 13-12c1-1 0-4-2-6l2-4c-2-3-4-2-5 0l-7 10M671 358c3-2 4-4 1-7s-8-3-13 1v4l1 1-3 3 1 1 6-4h7v1M629 289l-4 8-2 4c-4 3-4 4 1 6l3-4-3-1c3-2 10-1 5-7 2-3 8-3 4-9l-4 3M601 775c-7-6-14-5-22-3 4 4 4 4 22 3M242 428c1-6-3-7-8-7a66269 66269 0 0 1 2 16l5-7 1-2M501 193h5l-3 9 14-1v-2c-2-3-7 1-11-2l8-3c-4-4-7-4-13-1M640 283l7-7c1-1-1-4-1-6l-7-3 1 16" fill="#7c7e81"/>
    <path d="M242 428l-1 2-2 12 2 1 7-9v-10l-3 5-3-1M670 315c-6-3-11-4-17-2l8 7 4-1 5-4M412 261c-1 4-4 7 2 10l1 6 5-9c-1-3-5-5-8-7M585 756c-4-5-10 2-15-1 1 5 7 8 10 7l5-6M597 761h2c6 3 6 3 10 0l-5-2v-1l8 1c-4-3-7-5-12-2l-8 1 5 3M369 207l6-12-1-3-4-1 2 5c-3 1-8 1-4 6-2 3-5 4-2 8l3-3zM470 230c1-4 1-7 6-8l1-5-2-1-10 16c3 4 6 4 8 0l-3-2M369 207l2 5 4 2 3-3 1-11c-3 3-4 8-10 7M310 570c7-3 9-8 10-14-4-1-11 9-10 14M360 214c-8 9-8 10 2 13 3-5-3-8-2-13M612 743l4 2 11-2-9-7-1 1 5 7-12-5v1l2 3M445 234l6-9-5-4-4 4h3l-1 9h1M306 238c1-5 10-7 6-15l-8 15h2M735 433l-3 3-2 6h4l5-4-1-1-4 1 2-5zM612 774l15-1c-3-6-9-6-15 1" fill="#7c7e81"/>
    <path d="M306 559c9 0 10-1 8-7l-9 5 1 2M677 367l-7 6 12 3-5-9M556 759c3 4 7 5 11 2l-4-5-7 3M544 258l5-10-2-2-6 13-3-3 6 2M466 287l7-2v-7l-3-2-1 3-3 8M312 240c6 0 7-3 8-6l-4-3-4 9M714 407l5-4-4-7h-2l1 11M664 727l-8-1c1 5 1 5 10 7l-2-6M428 210c6 0 8-1 9-5l-8-1-1 6M268 405h-5l-1-4c-2 4-4 7 0 9 1 1 4-2 6-3v-2M304 244l-4 8 1 2 7-4-4-6M284 353l1-10h-4c-3 4-1 6 3 10M208 441c3-4 3-4-2-9l-2 4 4 5M252 437l1-2v-3l-5 2v8h1l3-5M343 409l-2 2 1 8h2l3-7-4 1zM328 338l2-9-8 5v2l6 2M514 267c5 2 8 2 9-1l-2-4-7 5M538 252l5-11h-2c-3 3-5 6-5 10l2 1M443 288l-3-1-6 9 1 1 8-9M640 292l-11 8 2 2c6-2 7-7 9-10M633 253c-6 2-4 6-4 9l2 1 2-10M643 286c5 0 6-5 9-8l-1-1-9 8 1 1M444 205c-3-1-3-1-5 7l4 1 1-8M501 188l-3-3-5 2v2h8v-1M685 388c3-4-1-5-3-8l-2 6a8714 8714 0 0 0 5 2M349 411l2-2 6-7v-1c-5 3-9 6-10 11l2-1M531 768l14 1v-2h-14zM467 218l3-6h-4l-2 5zM370 229v10c4-3 4-5 0-10M452 228l-3 10 2 1 4-10-3-1M468 295l6-6c-4-2-3-2-5 1l-3 4 2 1M671 315v3h9v-2l-9-1M509 212l9-8-1-1c-3 3-8 3-8 9M573 242l5-8c-5 0-6 2-5 8M218 424v-6h-2l-2 5 3 2 1-1M339 379l1-9-2-1-1 9 2 1M293 345l-7 11 1 1 7-11-1-1M356 211l-5 8 1 1 6-8zM521 762l8-1v-2h-8v3" fill="#7c7e81"/>
    <text style="-inkscape-font-specification:Helvetica" transform="matrix(-1 0 0 1 1322 629)" font-weight="400" font-size="409" font-family="Helvetica" fill="#a773b0">
      <tspan y="0" x="0">}</tspan>
    </text>
  </g>
</svg>
